<?xml version="1.0" encoding="UTF-8"?>
<svg width="512" height="512" viewBox="0 0 512 512" xmlns="http://www.w3.org/2000/svg">
  <rect width="512" height="512" fill="#B3E5FC" />
  <g transform="translate(106, 106) scale(1.2)">
    <!-- Duck body -->
    <path d="M120 80 C180 80 220 140 180 190 C160 220 80 220 60 190 C20 140 60 80 120 80" fill="#FFD54F" stroke="#000000" stroke-width="8"/>
    <!-- Duck head -->
    <circle cx="120" cy="100" r="40" fill="#FFD54F" stroke="#000000" stroke-width="8"/>
    <!-- Duck beak -->
    <path d="M140 100 L180 100 L140 120 Z" fill="#FF9800" stroke="#000000" stroke-width="4"/>
    <!-- Duck eyes -->
    <circle cx="110" cy="90" r="8" fill="#FFFFFF" stroke="#000000" stroke-width="4"/>
    <circle cx="110" cy="90" r="4" fill="#000000"/>
    <!-- Duck hair -->
    <path d="M120 65 L130 50 M120 65 L120 50 M120 65 L110 50" stroke="#000000" stroke-width="4"/>
    <!-- Keyboard -->
    <rect x="40" y="160" width="160" height="60" fill="#FFFFFF" stroke="#000000" stroke-width="8" rx="5"/>
    <g stroke="#000000" stroke-width="2">
      <line x1="60" y1="180" x2="80" y2="180"/>
      <line x1="90" y1="180" x2="110" y2="180"/>
      <line x1="120" y1="180" x2="140" y2="180"/>
      <line x1="150" y1="180" x2="170" y2="180"/>
      <line x1="70" y1="200" x2="90" y2="200"/>
      <line x1="100" y1="200" x2="120" y2="200"/>
      <line x1="130" y1="200" x2="150" y2="200"/>
    </g>
  </g>
</svg> 